<svg width="22" height="22" viewBox="0 0 22 22" fill="none" xmlns="http://www.w3.org/2000/svg">
<path d="M15.5833 16.5C16.0695 16.5 16.5358 16.6932 16.8797 17.037C17.2235 17.3808 17.4166 17.8471 17.4166 18.3333C17.4166 18.8196 17.2235 19.2859 16.8797 19.6297C16.5358 19.9735 16.0695 20.1667 15.5833 20.1667C15.0971 20.1667 14.6307 19.9735 14.2869 19.6297C13.9431 19.2859 13.75 18.8196 13.75 18.3333C13.75 17.3158 14.5658 16.5 15.5833 16.5ZM0.916626 1.83333H3.91413L4.77579 3.66667H18.3333C18.5764 3.66667 18.8096 3.76324 18.9815 3.93515C19.1534 4.10706 19.25 4.34022 19.25 4.58333C19.25 4.73917 19.2041 4.895 19.14 5.04167L15.8583 10.9725C15.5466 11.5317 14.9416 11.9167 14.2541 11.9167H7.42496L6.59996 13.4108L6.57246 13.5208C6.57246 13.5816 6.5966 13.6399 6.63958 13.6829C6.68256 13.7259 6.74085 13.75 6.80163 13.75H17.4166V15.5833H6.41663C5.9304 15.5833 5.46408 15.3902 5.12026 15.0464C4.77645 14.7025 4.58329 14.2362 4.58329 13.75C4.58329 13.4292 4.66579 13.1267 4.80329 12.87L6.04996 10.6242L2.74996 3.66667H0.916626V1.83333ZM6.41663 16.5C6.90286 16.5 7.36917 16.6932 7.71299 17.037C8.0568 17.3808 8.24996 17.8471 8.24996 18.3333C8.24996 18.8196 8.0568 19.2859 7.71299 19.6297C7.36917 19.9735 6.90286 20.1667 6.41663 20.1667C5.9304 20.1667 5.46408 19.9735 5.12026 19.6297C4.77645 19.2859 4.58329 18.8196 4.58329 18.3333C4.58329 17.3158 5.39913 16.5 6.41663 16.5ZM14.6666 10.0833L17.215 5.5H5.62829L7.79163 10.0833H14.6666Z" fill="white"/>
</svg>
