<svg width="9" height="16" viewBox="0 0 9 16" fill="none" xmlns="http://www.w3.org/2000/svg">
<path d="M8.09665 1.33574C8.16807 1.26016 8.22391 1.17125 8.26097 1.07409C8.29803 0.976928 8.31559 0.87342 8.31265 0.769472C8.30971 0.665525 8.28633 0.563174 8.24383 0.468265C8.20133 0.373355 8.14056 0.287745 8.06498 0.216322C7.9894 0.1449 7.90049 0.0890631 7.80333 0.0520008C7.70617 0.0149385 7.60266 -0.00262386 7.49871 0.000316668C7.39477 0.00325719 7.29241 0.0266429 7.1975 0.0691385C7.1026 0.111634 7.01699 0.172408 6.94556 0.247989L0.216396 7.37299C0.07743 7.51998 0 7.71458 0 7.91686C0 8.11914 0.07743 8.31375 0.216396 8.46074L6.94556 15.5865C7.01651 15.6638 7.10211 15.7261 7.19736 15.77C7.29262 15.8139 7.39565 15.8384 7.50046 15.8421C7.60527 15.8459 7.70978 15.8287 7.80791 15.7917C7.90605 15.7547 7.99585 15.6986 8.0721 15.6266C8.14836 15.5546 8.20954 15.4681 8.25211 15.3723C8.29467 15.2764 8.31777 15.1731 8.32005 15.0682C8.32233 14.9633 8.30376 14.8591 8.26541 14.7615C8.22706 14.6639 8.16969 14.5748 8.09665 14.4996L1.88048 7.91686L8.09665 1.33574Z" fill="white"/>
</svg>
