<svg width="9" height="16" viewBox="0 0 9 16" fill="none" xmlns="http://www.w3.org/2000/svg">
<path d="M0.223544 14.5069C0.152122 14.5825 0.0962849 14.6714 0.0592232 14.7685C0.0221605 14.8657 0.00459766 14.9692 0.0075388 15.0731C0.010479 15.1771 0.033865 15.2794 0.0763607 15.3744C0.118856 15.4693 0.179629 15.5549 0.255211 15.6263C0.330792 15.6977 0.419701 15.7536 0.516861 15.7906C0.614022 15.8277 0.71753 15.8452 0.821477 15.8423C0.925425 15.8394 1.02778 15.816 1.12269 15.7735C1.2176 15.731 1.30321 15.6702 1.37463 15.5946L8.10379 8.46963C8.24276 8.32264 8.32019 8.12804 8.32019 7.92576C8.32019 7.72348 8.24276 7.52887 8.10379 7.38188L1.37463 0.256089C1.30368 0.178854 1.21809 0.116485 1.12283 0.072607C1.02757 0.0287294 0.924541 0.00421715 0.819728 0.00049305C0.714916 -0.00323105 0.610408 0.0139093 0.512276 0.0509157C0.414143 0.087923 0.324342 0.144058 0.248088 0.216064C0.171834 0.288071 0.110648 0.37451 0.0680828 0.470363C0.0255175 0.566215 0.00242329 0.66957 0.000139236 0.774424C-0.00214386 0.879277 0.0164289 0.98354 0.054781 1.08115C0.093132 1.17877 0.150497 1.26779 0.223544 1.34305L6.43971 7.92576L0.223544 14.5069Z" fill="white"/>
</svg>
