<svg width="18" height="19" viewBox="0 0 18 19" fill="none" xmlns="http://www.w3.org/2000/svg">
<path d="M1.47803 8.62506V11.2501C1.47803 14.5497 1.47803 16.1999 2.50353 17.2246C3.52903 18.2492 5.1784 18.2501 8.47803 18.2501H9.35303C12.6527 18.2501 14.3029 18.2501 15.3275 17.2246M16.353 8.62506V11.2501C16.353 12.2738 16.353 13.1383 16.3224 13.8751" stroke="white" stroke-width="1.5" stroke-linecap="round"/>
<path d="M6.72805 0.750057H11.103M6.72805 0.750057L6.15755 6.45243C6.11996 6.83723 6.16331 7.22563 6.28481 7.59267C6.40631 7.95971 6.60327 8.29726 6.86303 8.58362C7.12279 8.86999 7.4396 9.09883 7.79309 9.25544C8.14657 9.41204 8.52892 9.49295 8.91555 9.49295C9.30217 9.49295 9.68452 9.41204 10.038 9.25544C10.3915 9.09883 10.7083 8.86999 10.9681 8.58362C11.2278 8.29726 11.4248 7.95971 11.5463 7.59267C11.6678 7.22563 11.7111 6.83723 11.6735 6.45243L11.103 0.750057M6.72805 0.750057H4.9063C4.1118 0.750057 3.71455 0.750057 3.3733 0.843682C3.01837 0.941031 2.68788 1.11193 2.40327 1.34528C2.11867 1.57863 1.88632 1.86922 1.7213 2.19818M6.72805 0.750057L6.09367 7.08943C6.06019 7.45223 5.95302 7.80438 5.77872 8.12433C5.60442 8.44427 5.36665 8.72527 5.07998 8.95014C4.7933 9.175 4.46375 9.33899 4.1115 9.43206C3.75924 9.52514 3.3917 9.54534 3.03137 9.49144C2.67104 9.43753 2.3255 9.31066 2.0159 9.11857C1.70631 8.92649 1.43917 8.67324 1.23085 8.37433C1.02253 8.07542 0.877403 7.73714 0.80436 7.38019C0.731316 7.02325 0.73189 6.65515 0.806048 6.29843L0.865547 6.00006M11.103 0.750057H12.9248C13.7193 0.750057 14.1165 0.750057 14.4578 0.843682C14.8127 0.941031 15.1432 1.11193 15.4278 1.34528C15.7124 1.57863 15.9448 1.86922 16.1098 2.19818C16.2682 2.51318 16.346 2.90343 16.5018 3.68218L17.025 6.29843C17.0992 6.65515 17.0998 7.02325 17.0267 7.38019C16.9537 7.73714 16.8086 8.07542 16.6002 8.37433C16.3919 8.67324 16.1248 8.92649 15.8152 9.11857C15.5056 9.31066 15.1601 9.43753 14.7997 9.49144C14.4394 9.54534 14.0719 9.52514 13.7196 9.43206C13.3673 9.33899 13.0378 9.175 12.7511 8.95014C12.4644 8.72527 12.2267 8.44427 12.0524 8.12433C11.8781 7.80438 11.7709 7.45223 11.7374 7.08943L11.103 0.750057ZM6.72805 17.8126V15.1876C6.72805 14.3694 6.72805 13.9608 6.90392 13.6563C7.01911 13.4568 7.18479 13.2911 7.3843 13.1759C7.6888 13.0001 8.09742 13.0001 8.91555 13.0001C9.73367 13.0001 10.1423 13.0001 10.4468 13.1759C10.6463 13.2911 10.812 13.4568 10.9272 13.6563C11.103 13.9608 11.103 14.3694 11.103 15.1876V17.8126" stroke="white" stroke-width="1.5" stroke-linecap="round"/>
</svg>
